<?xml version="1.0" encoding="UTF-8" standalone="no"?>
<!DOCTYPE svg PUBLIC "-//W3C//DTD SVG 1.1//EN" "http://www.w3.org/Graphics/SVG/1.1/DTD/svg11.dtd">
<svg width="100%" height="100%" viewBox="0 0 625 625" version="1.1" xmlns="http://www.w3.org/2000/svg" xmlns:xlink="http://www.w3.org/1999/xlink" xml:space="preserve" xmlns:serif="http://www.serif.com/" style="fill-rule:evenodd;clip-rule:evenodd;stroke-linejoin:round;stroke-miterlimit:2;">
    <g transform="matrix(4.16667,0,0,4.16667,0,0)">
        <rect id="Artboard1" x="0" y="0" width="150" height="150" style="fill:none;"/>
        <g id="Artboard11" serif:id="Artboard1">
            <g transform="matrix(1,0,0,1,-3.13833,-12.2957)">
                <g>
                    <g transform="matrix(1.09018,0,0,1.04222,-18.2629,-6.15406)">
                        <g>
                            <g transform="matrix(0.914546,0.404481,-0.404481,0.914546,74.0755,-65.6095)">
                                <rect x="40.026" y="133.418" width="11.788" height="11.788" style="fill:rgb(0,169,255);"/>
                            </g>
                            <g transform="matrix(0.914546,0.404481,-0.404481,0.914546,74.0755,-65.6095)">
                                <path d="M40.026,132.918C39.75,132.918 39.526,133.142 39.526,133.418L39.526,145.206C39.526,145.482 39.75,145.706 40.026,145.706L51.814,145.706C52.09,145.706 52.314,145.482 52.314,145.206L52.314,133.418C52.314,133.142 52.09,132.918 51.814,132.918L40.026,132.918ZM40.526,133.918L51.314,133.918C51.314,133.918 51.314,144.706 51.314,144.706C51.314,144.706 40.526,144.706 40.526,144.706L40.526,133.918Z" style="fill:rgb(0,160,241);"/>
                            </g>
                            <g transform="matrix(0.795223,0.606318,-0.606318,0.795223,122.583,-48.9512)">
                                <rect x="40.026" y="133.418" width="11.788" height="11.788" style="fill:rgb(0,169,255);"/>
                            </g>
                            <g transform="matrix(0.795223,0.606318,-0.606318,0.795223,122.583,-48.9512)">
                                <path d="M40.026,132.918C39.75,132.918 39.526,133.142 39.526,133.418L39.526,145.206C39.526,145.482 39.75,145.706 40.026,145.706L51.814,145.706C52.09,145.706 52.314,145.482 52.314,145.206L52.314,133.418C52.314,133.142 52.09,132.918 51.814,132.918L40.026,132.918ZM40.526,133.918L51.314,133.918C51.314,133.918 51.314,144.706 51.314,144.706C51.314,144.706 40.526,144.706 40.526,144.706L40.526,133.918Z" style="fill:rgb(0,160,241);"/>
                            </g>
                            <g transform="matrix(0.981147,0.193264,-0.193264,0.981147,24.881,-71.4594)">
                                <rect x="40.026" y="133.418" width="11.788" height="11.788" style="fill:rgb(0,169,255);"/>
                            </g>
                            <g transform="matrix(0.981147,0.193264,-0.193264,0.981147,24.881,-71.4594)">
                                <path d="M40.026,132.918C39.75,132.918 39.526,133.142 39.526,133.418L39.526,145.206C39.526,145.482 39.75,145.706 40.026,145.706L51.814,145.706C52.09,145.706 52.314,145.482 52.314,145.206L52.314,133.418C52.314,133.142 52.09,132.918 51.814,132.918L40.026,132.918ZM40.526,133.918L51.314,133.918C51.314,133.918 51.314,144.706 51.314,144.706C51.314,144.706 40.526,144.706 40.526,144.706L40.526,133.918Z" style="fill:rgb(0,160,241);"/>
                            </g>
                        </g>
                        <g transform="matrix(1,0,0,1,11.5905,1.03687)">
                            <path d="M108.806,83.55L108.806,105.118C108.806,113.144 102.29,119.66 94.264,119.66L35.887,119.66C27.861,119.66 21.345,113.144 21.345,105.118L21.345,90.458C37.575,89.734 62.797,114.909 71.754,101.993C64.612,85.228 37.437,65.376 21.345,66.927L21.345,44.882C21.345,36.856 27.861,30.34 35.887,30.34L94.264,30.34C102.29,30.34 108.806,36.856 108.806,44.882L108.806,61.872C113.539,58.07 118.732,54.826 128.655,57.331C136.586,59.333 138.146,88.858 128.655,95.18C117.535,83.677 112.56,82.578 108.806,83.55Z" style="fill:rgb(0,169,255);"/>
                        </g>
                        <g transform="matrix(1,0,0,1,11.5905,1.03687)">
                            <path d="M109.306,83.946C111.007,83.585 112.993,83.723 115.74,85.132C118.812,86.707 122.791,89.833 128.295,95.528C128.463,95.701 128.731,95.73 128.932,95.596C131.292,94.024 133.014,91.081 134.121,87.467C135.745,82.17 136.07,75.428 135.31,69.633C134.799,65.737 133.795,62.269 132.381,59.939C131.377,58.286 130.156,57.195 128.777,56.847C119.202,54.429 113.936,57.246 109.306,60.839C109.306,60.839 109.306,44.882 109.306,44.882C109.306,36.58 102.566,29.84 94.264,29.84L35.887,29.84C27.585,29.84 20.845,36.58 20.845,44.882C20.845,44.882 20.845,66.927 20.845,66.927C20.845,67.068 20.905,67.202 21.009,67.297C21.113,67.392 21.253,67.438 21.393,67.425C27.746,66.812 35.843,69.603 43.732,74.204C55.522,81.08 66.847,92.02 71.183,101.932C69.509,104.206 67.263,105.14 64.622,105.184C61.789,105.231 58.518,104.276 55.004,102.841C48.551,100.207 41.3,95.954 34.429,93.066C29.771,91.109 25.282,89.782 21.323,89.959C21.056,89.971 20.845,90.191 20.845,90.458L20.845,105.118C20.845,113.42 27.585,120.16 35.887,120.16C35.887,120.16 94.264,120.16 94.264,120.16C102.566,120.16 109.306,113.42 109.306,105.118C109.306,105.118 109.306,83.946 109.306,83.946L109.306,83.946ZM108.681,83.066C108.46,83.123 108.306,83.322 108.306,83.55L108.306,105.118C108.306,112.868 102.014,119.16 94.264,119.16L35.887,119.16C28.137,119.16 21.845,112.868 21.845,105.118L21.845,90.944C25.557,90.896 29.722,92.173 34.042,93.988C40.916,96.877 48.17,101.131 54.626,103.767C58.283,105.259 61.69,106.232 64.638,106.184C67.693,106.133 70.271,105.008 72.165,102.278C72.263,102.137 72.281,101.956 72.214,101.798C67.895,91.658 56.319,80.387 44.236,73.34C36.365,68.749 28.28,65.959 21.845,66.385C21.845,66.385 21.845,44.882 21.845,44.882C21.845,37.132 28.137,30.84 35.887,30.84C35.887,30.84 94.264,30.84 94.264,30.84C102.014,30.84 108.306,37.132 108.306,44.882L108.306,61.872C108.306,62.064 108.416,62.24 108.59,62.323C108.763,62.406 108.969,62.382 109.119,62.262C113.749,58.543 118.827,55.366 128.533,57.816C129.692,58.109 130.682,59.068 131.526,60.458C132.883,62.693 133.829,66.026 134.319,69.763C135.06,75.42 134.75,82.003 133.165,87.174C132.188,90.362 130.735,93.012 128.716,94.525C123.255,88.911 119.274,85.82 116.196,84.242C112.941,82.573 110.649,82.556 108.681,83.066Z" style="fill:rgb(0,161,217);"/>
                        </g>
                        <g transform="matrix(1,0,0,1,12.0254,1.10654)">
                            <path d="M123.372,78.718C123.372,78.718 130.576,79.711 131.982,87.347C132.031,87.618 132.292,87.798 132.564,87.748C132.835,87.698 133.015,87.437 132.965,87.166C131.424,78.796 123.507,77.727 123.507,77.727C123.234,77.69 122.981,77.882 122.944,78.155C122.907,78.429 123.099,78.681 123.372,78.718Z" style="fill:rgb(0,166,217);"/>
                        </g>
                        <g transform="matrix(1,0,0,1,13.89,-6.02042)">
                            <path d="M123.372,78.718C123.372,78.718 130.576,79.711 131.982,87.347C132.031,87.618 132.292,87.798 132.564,87.748C132.835,87.698 133.015,87.437 132.965,87.166C131.424,78.796 123.507,77.727 123.507,77.727C123.234,77.69 122.981,77.882 122.944,78.155C122.907,78.429 123.099,78.681 123.372,78.718Z" style="fill:rgb(0,166,217);"/>
                        </g>
                        <g transform="matrix(1,0,0,1,14.3333,-13.7593)">
                            <path d="M123.366,78.717C123.366,78.717 130.401,79.778 131.807,87.415C131.857,87.686 132.118,87.866 132.389,87.816C132.661,87.766 132.84,87.505 132.79,87.234C131.25,78.865 123.513,77.728 123.513,77.728C123.24,77.688 122.986,77.876 122.945,78.149C122.904,78.422 123.093,78.677 123.366,78.717Z" style="fill:rgb(0,166,217);"/>
                        </g>
                        <g>
                            <ellipse cx="86.639" cy="54.087" rx="9.686" ry="9.449" style="fill:white;"/>
                            <path d="M86.639,44.138C81.014,44.138 76.454,48.599 76.454,54.087C76.454,59.575 81.014,64.036 86.639,64.036C92.264,64.036 96.825,59.575 96.825,54.087C96.825,48.599 92.264,44.138 86.639,44.138ZM86.639,45.138C91.706,45.138 95.825,49.144 95.825,54.087C95.825,59.03 91.706,63.036 86.639,63.036C81.573,63.036 77.454,59.03 77.454,54.087C77.454,49.144 81.573,45.138 86.639,45.138Z" style="fill:rgb(0,159,236);"/>
                            <g transform="matrix(1,0,0,1,-1.72005,1.18099)">
                                <circle cx="85.582" cy="53.317" r="5.76" style="fill:rgb(0,147,206);"/>
                            </g>
                        </g>
                        <g transform="matrix(1,0,0,1,-20.4609,-8.40755)">
                            <ellipse cx="86.639" cy="54.087" rx="9.686" ry="9.449" style="fill:white;"/>
                            <path d="M86.639,44.138C81.014,44.138 76.454,48.599 76.454,54.087C76.454,59.575 81.014,64.036 86.639,64.036C92.264,64.036 96.825,59.575 96.825,54.087C96.825,48.599 92.264,44.138 86.639,44.138ZM86.639,45.138C91.706,45.138 95.825,49.144 95.825,54.087C95.825,59.03 91.706,63.036 86.639,63.036C81.573,63.036 77.454,59.03 77.454,54.087C77.454,49.144 81.573,45.138 86.639,45.138Z" style="fill:rgb(0,159,236);"/>
                            <g transform="matrix(1,0,0,1,-1.72005,1.18099)">
                                <circle cx="85.582" cy="53.317" r="5.76" style="fill:rgb(0,147,206);"/>
                            </g>
                        </g>
                        <g transform="matrix(1,0,0,1,-2.38828,-9.75651)">
                            <path d="M101.299,80.249C101.201,80.348 101.149,80.483 101.155,80.621C101.161,80.76 101.224,80.89 101.329,80.98C101.491,81.118 101.648,81.263 101.8,81.413C104.968,84.539 105.324,89.362 102.544,92.18C99.763,94.998 94.936,94.706 91.768,91.58C91.616,91.43 91.469,91.275 91.329,91.116C91.237,91.012 91.106,90.95 90.968,90.946C90.829,90.943 90.695,90.996 90.598,91.095L89.76,91.944C89.624,92.082 89.58,92.287 89.647,92.469C90.437,94.6 91.743,96.602 93.435,98.271C98.805,103.569 106.654,104.267 110.943,99.92C115.233,95.572 114.429,87.734 109.06,82.436C107.367,80.766 105.348,79.487 103.207,78.726C103.024,78.661 102.82,78.708 102.683,78.846L101.299,80.249ZM102.377,80.58L103.169,79.778C105.066,80.501 106.85,81.66 108.358,83.148C113.298,88.022 114.178,95.218 110.231,99.217C106.285,103.217 99.078,102.434 94.138,97.56C92.63,96.072 91.448,94.304 90.699,92.417C90.699,92.417 90.943,92.169 90.943,92.169C90.983,92.21 91.024,92.251 91.065,92.292C94.648,95.827 100.111,96.068 103.256,92.882C106.4,89.695 106.085,84.236 102.502,80.701L102.377,80.58Z" style="fill:rgb(0,152,223);"/>
                        </g>
                        <g transform="matrix(1,0,0,1,-0.624219,1.73281)">
                            <path d="M106.12,81.294L110.489,84.374C110.715,84.533 111.027,84.479 111.186,84.253C111.345,84.028 111.291,83.715 111.065,83.556L106.696,80.477C106.47,80.318 106.158,80.372 105.999,80.597C105.84,80.823 105.894,81.135 106.12,81.294Z" style="fill:rgb(0,152,230);"/>
                        </g>
                        <path d="M102.813,85.76L107.87,90.188C108.077,90.37 108.393,90.349 108.575,90.142C108.757,89.934 108.736,89.618 108.528,89.436L103.472,85.008C103.265,84.826 102.949,84.847 102.767,85.054C102.585,85.262 102.606,85.578 102.813,85.76Z" style="fill:rgb(0,152,230);"/>
                        <path d="M99.402,88.781L103.695,92.56C103.902,92.743 104.218,92.722 104.401,92.515C104.583,92.308 104.563,91.992 104.356,91.81L100.062,88.03C99.855,87.848 99.539,87.868 99.357,88.075C99.174,88.283 99.194,88.599 99.402,88.781Z" style="fill:rgb(0,152,230);"/>
                        <g transform="matrix(1,0,0,1,-0.575781,-2.31328)">
                            <g transform="matrix(0.225757,-0.673414,0.31836,0.106728,13.9368,91.7038)">
                                <path d="M66.059,38.819C66.646,37.771 66.955,36.582 66.955,35.372C66.955,31.567 63.958,28.478 60.266,28.478C56.575,28.478 53.577,31.567 53.577,35.372C53.577,36.582 53.887,37.771 54.474,38.819L66.059,38.819Z" style="fill:rgb(0,129,194);"/>
                            </g>
                            <g transform="matrix(0.225757,-0.673414,0.31836,0.106728,17.8968,93.0492)">
                                <path d="M66.059,38.819C66.646,37.771 66.955,36.582 66.955,35.372C66.955,31.567 63.958,28.478 60.266,28.478C56.575,28.478 53.577,31.567 53.577,35.372C53.577,36.582 53.887,37.771 54.474,38.819L66.059,38.819Z" style="fill:rgb(0,129,194);"/>
                            </g>
                        </g>
                    </g>
                    <g transform="matrix(1,0,0,1,0,6.95801)">
                        <g transform="matrix(1,0,0,1,-146.473,83.8389)">
                            <g transform="matrix(0.965926,0.258819,-0.258819,0.965926,15.6418,-44.0292)">
                                <path d="M180.513,52.234C180.513,55.575 178.721,57.246 175.137,57.246L168.277,57.246L168.277,39.858L174.997,39.858C176.77,39.858 178.086,40.217 178.945,40.936C179.803,41.654 180.233,42.798 180.233,44.366C180.233,45.934 179.589,47.128 178.301,47.95L178.301,48.118C179.775,48.696 180.513,50.068 180.513,52.234ZM174.017,54.138C174.577,54.138 174.955,54.012 175.151,53.76C175.347,53.508 175.445,52.985 175.445,52.192C175.445,51.398 175.342,50.838 175.137,50.512C174.931,50.185 174.558,50.022 174.017,50.022L173.121,50.022L173.121,54.138L174.017,54.138ZM174.045,47.306C174.474,47.306 174.773,47.175 174.941,46.914C175.109,46.652 175.193,46.19 175.193,45.528C175.193,44.865 175.104,44.398 174.927,44.128C174.749,43.857 174.446,43.722 174.017,43.722L173.121,43.722L173.121,47.306L174.045,47.306Z" style="fill:rgb(0,152,223);fill-rule:nonzero;"/>
                            </g>
                            <g transform="matrix(1,0,0,1,-2.58984,0.240885)">
                                <path d="M186.477,57.246L181.857,57.246L181.857,43.974L186.477,43.974L186.477,57.246ZM182.221,42.91C181.829,42.574 181.633,42.032 181.633,41.286C181.633,40.539 181.829,39.988 182.221,39.634C182.613,39.279 183.257,39.102 184.153,39.102C185.049,39.102 185.693,39.279 186.085,39.634C186.477,39.988 186.673,40.534 186.673,41.272C186.673,42.009 186.477,42.55 186.085,42.896C185.693,43.241 185.049,43.414 184.153,43.414C183.257,43.414 182.613,43.246 182.221,42.91Z" style="fill:rgb(0,152,223);fill-rule:nonzero;"/>
                            </g>
                            <g transform="matrix(0.975806,-0.218638,0.218638,0.975806,-7.95356,42.7879)">
                                <path d="M195.801,57.274C194.419,57.442 193.22,57.526 192.203,57.526C191.185,57.526 190.392,57.26 189.823,56.728C189.253,56.196 188.969,55.276 188.969,53.97L188.969,47.474L187.625,47.474L187.625,44.002L189.193,44.002L189.445,41.426L193.673,41.426L193.673,44.002L196.165,44.002L195.969,47.474L193.645,47.474L193.645,53.046C193.645,53.438 193.831,53.634 194.205,53.634C194.242,53.634 194.821,53.606 195.941,53.55L195.801,57.274Z" style="fill:rgb(0,152,223);fill-rule:nonzero;"/>
                            </g>
                            <g transform="matrix(0.965926,0.258819,-0.258819,0.965926,19.5643,-51.2512)">
                                <path d="M202.717,47.502C202.231,47.502 201.914,47.665 201.765,47.992C201.615,48.318 201.541,48.818 201.541,49.49L203.977,49.49L203.977,48.818C203.977,47.94 203.557,47.502 202.717,47.502ZM202.829,43.498C204.751,43.498 206.128,43.96 206.959,44.884C207.789,45.808 208.205,47.128 208.205,48.846C208.205,49.07 208.139,50.078 208.009,51.87L201.625,51.87C201.625,53.27 202.269,53.97 203.557,53.97C204.173,53.97 205.377,53.755 207.169,53.326L207.561,56.798C205.993,57.283 204.425,57.526 202.857,57.526C200.934,57.526 199.459,56.896 198.433,55.636C197.406,54.376 196.893,52.663 196.893,50.498C196.893,45.831 198.871,43.498 202.829,43.498Z" style="fill:rgb(0,152,223);fill-rule:nonzero;"/>
                            </g>
                            <g transform="matrix(0.965926,-0.258819,0.258819,0.965926,-4.0887,57.2049)">
                                <path d="M209.101,45.094C209.101,43.432 209.586,42.098 210.557,41.09C211.527,40.082 212.857,39.578 214.547,39.578C216.236,39.578 217.967,39.746 219.741,40.082L219.181,44.562C217.333,44.132 216.063,43.918 215.373,43.918C214.495,43.918 214.057,44.272 214.057,44.982C214.057,45.262 214.267,45.532 214.687,45.794C215.107,46.055 215.615,46.33 216.213,46.62C216.81,46.909 217.407,47.254 218.005,47.656C218.602,48.057 219.111,48.631 219.531,49.378C219.951,50.124 220.161,50.983 220.161,51.954C220.161,53.727 219.685,55.099 218.733,56.07C217.781,57.04 216.432,57.526 214.687,57.526C212.941,57.526 211.238,57.255 209.577,56.714L209.885,52.542C211.882,53.12 213.273,53.41 214.057,53.41C214.841,53.41 215.233,53.064 215.233,52.374C215.233,52.019 215.023,51.692 214.603,51.394C214.183,51.095 213.674,50.796 213.077,50.498C212.479,50.199 211.877,49.854 211.271,49.462C210.664,49.07 210.151,48.5 209.731,47.754C209.311,47.007 209.101,46.12 209.101,45.094Z" style="fill:rgb(0,152,223);fill-rule:nonzero;"/>
                            </g>
                            <g transform="matrix(0.965926,-0.258819,0.258819,0.965926,-3.45774,59.5799)">
                                <path d="M226.181,57.246L221.561,57.246L221.561,43.974L226.181,43.974L226.181,57.246ZM221.925,42.91C221.533,42.574 221.337,42.032 221.337,41.286C221.337,40.539 221.533,39.988 221.925,39.634C222.317,39.279 222.961,39.102 223.857,39.102C224.753,39.102 225.397,39.279 225.789,39.634C226.181,39.988 226.377,40.534 226.377,41.272C226.377,42.009 226.181,42.55 225.789,42.896C225.397,43.241 224.753,43.414 223.857,43.414C222.961,43.414 222.317,43.246 221.925,42.91Z" style="fill:rgb(0,152,223);fill-rule:nonzero;"/>
                            </g>
                            <g transform="matrix(0.986746,0.162273,-0.162273,0.986746,14.8536,-38.9015)">
                                <path d="M237.773,57.246L227.721,57.246L227.609,54.558L231.753,47.754L227.441,47.754L227.441,43.834L237.493,43.834L237.661,46.326L233.657,53.382L237.773,53.382L237.773,57.246Z" style="fill:rgb(0,152,223);fill-rule:nonzero;"/>
                            </g>
                            <g transform="matrix(0.990395,-0.138266,0.138266,0.990395,-1.49033,34.4199)">
                                <path d="M244.549,47.502C244.063,47.502 243.746,47.665 243.597,47.992C243.447,48.318 243.373,48.818 243.373,49.49L245.809,49.49L245.809,48.818C245.809,47.94 245.389,47.502 244.549,47.502ZM244.661,43.498C246.583,43.498 247.96,43.96 248.791,44.884C249.621,45.808 250.037,47.128 250.037,48.846C250.037,49.07 249.971,50.078 249.841,51.87L243.457,51.87C243.457,53.27 244.101,53.97 245.389,53.97C246.005,53.97 247.209,53.755 249.001,53.326L249.393,56.798C247.825,57.283 246.257,57.526 244.689,57.526C242.766,57.526 241.291,56.896 240.265,55.636C239.238,54.376 238.725,52.663 238.725,50.498C238.725,45.831 240.703,43.498 244.661,43.498Z" style="fill:rgb(0,152,223);fill-rule:nonzero;"/>
                            </g>
                        </g>
                        <g transform="matrix(1,0,0,1,92.1686,75.0322)">
                            <text x="20.753px" y="66.257px" style="font-family:'FontAwesome5Brands-Regular', 'Font Awesome 5 Brands';font-size:21.762px;fill:rgb(0,152,223);"></text>
                        </g>
                    </g>
                </g>
            </g>
        </g>
    </g>
</svg>
